<svg width="21" height="21" viewBox="0 0 21 21" fill="none" xmlns="http://www.w3.org/2000/svg">
<path d="M9.07753 1.68328C9.55649 0.209181 11.6419 0.209184 12.1209 1.68328L13.473 5.84458C13.6872 6.50382 14.3015 6.95016 14.9947 6.95016H19.3701C20.9201 6.95016 21.5645 8.93354 20.3106 9.84458L16.7708 12.4164C16.21 12.8238 15.9753 13.546 16.1895 14.2053L17.5416 18.3666C18.0206 19.8407 16.3334 21.0665 15.0795 20.1554L11.5397 17.5836C10.9789 17.1762 10.2195 17.1762 9.65876 17.5836L6.11895 20.1554C4.86501 21.0665 3.17784 19.8407 3.6568 18.3666L5.00889 14.2053C5.22309 13.546 4.98844 12.8238 4.42766 12.4164L0.88784 9.84458C-0.366102 8.93354 0.278341 6.95016 1.8283 6.95016H6.20375C6.89691 6.95016 7.51124 6.50382 7.72544 5.84458L9.07753 1.68328Z" fill="url(#paint0_linear_1_704)"/>
<defs>
<linearGradient id="paint0_linear_1_704" x1="10.5992" y1="-3" x2="10.5992" y2="25.8" gradientUnits="userSpaceOnUse">
<stop stop-color="#FFCE50"/>
<stop offset="1" stop-color="#FE9D0B"/>
</linearGradient>
</defs>
</svg>
