<svg width="22" height="21" viewBox="0 0 22 21" fill="none" xmlns="http://www.w3.org/2000/svg">
<path d="M9.47792 1.68328C9.95688 0.209181 12.0423 0.209184 12.5213 1.68328L13.8734 5.84458C14.0876 6.50382 14.7019 6.95016 15.3951 6.95016H19.7705C21.3205 6.95016 21.9649 8.93354 20.711 9.84458L17.1712 12.4164C16.6104 12.8238 16.3757 13.546 16.5899 14.2053L17.942 18.3666C18.421 19.8407 16.7338 21.0665 15.4799 20.1554L11.9401 17.5836C11.3793 17.1762 10.6199 17.1762 10.0592 17.5836L6.51934 20.1554C5.2654 21.0665 3.57823 19.8407 4.05719 18.3666L5.40928 14.2053C5.62348 13.546 5.38883 12.8238 4.82805 12.4164L1.28823 9.84458C0.0342884 8.93354 0.678731 6.95016 2.22869 6.95016H6.60414C7.2973 6.95016 7.91163 6.50382 8.12583 5.84458L9.47792 1.68328Z" fill="url(#paint0_linear_1_706)"/>
<defs>
<linearGradient id="paint0_linear_1_706" x1="10.9996" y1="-3" x2="10.9996" y2="25.8" gradientUnits="userSpaceOnUse">
<stop stop-color="#FFCE50"/>
<stop offset="1" stop-color="#FE9D0B"/>
</linearGradient>
</defs>
</svg>
